<svg width="27" height="27" viewBox="0 0 27 27" fill="none" xmlns="http://www.w3.org/2000/svg">
<path fill-rule="evenodd" clip-rule="evenodd" d="M6.74045 0.245802C6.61873 0.381644 6.50033 0.804419 6.47635 1.19012L6.43268 1.88863L5.53156 1.98041C3.19461 2.21838 1.24154 3.68494 0.372306 5.85435C0.0584389 6.63792 0.0551117 6.71193 0.016017 13.9139C-0.0216914 20.8765 -0.011571 21.2218 0.257517 22.1161C0.724713 23.6678 1.82838 24.9777 3.31342 25.7425C4.60646 26.4086 4.9407 26.4371 11.4928 26.4438C17.2282 26.4496 17.7157 26.469 18.4245 26.7207C19.4569 27.0872 21.2909 27.0939 22.4323 26.7354C24.6289 26.0455 26.4163 24.0721 26.8982 21.8051C27.1117 20.8006 26.9761 18.9923 26.6151 18.0303C26.4529 17.5979 26.0721 16.8945 25.7689 16.4672L25.2176 15.6902L25.2142 11.5175C25.2123 9.21528 25.148 7.06951 25.0705 6.73081C24.5877 4.61722 22.9889 2.8731 20.9529 2.23908L20.1574 1.99146L20.0853 1.28707C19.9962 0.415919 19.6567 0 19.0348 0C18.4349 0 18.1472 0.418158 18.1472 1.29029V1.95858H13.2257H8.30424V1.21082C8.30424 0.6641 8.23603 0.40081 8.05067 0.231533C7.71837 -0.0719079 7.01855 -0.0643535 6.74045 0.245802ZM4.97633 3.96627C4.12679 4.19753 3.13181 4.91563 2.61928 5.66716C2.1733 6.32133 1.69376 7.94318 1.83586 8.31671C1.91045 8.51313 3.02021 8.53187 12.6325 8.49969L23.346 8.46388L23.3063 7.76439C23.2544 6.84483 22.5792 5.44822 21.9231 4.90248C21.4841 4.53748 20.3737 3.91717 20.1589 3.91717C20.12 3.91717 20.0881 4.16045 20.0881 4.45788C20.0881 5.17178 19.6553 5.73585 19.1075 5.73585C18.478 5.73585 18.1472 5.30231 18.1472 4.47676V3.77727H13.2257H8.30424V4.52503C8.30424 5.39184 8.04139 5.73585 7.37899 5.73585C6.76998 5.73585 6.502 5.35855 6.502 4.50069V3.77727L6.05144 3.78664C5.80356 3.79196 5.31987 3.87268 4.97633 3.96627ZM1.81424 15.7728C1.85735 21.1391 1.86109 21.2022 2.18799 21.9319C2.60265 22.8578 3.76093 23.9518 4.65027 24.2576C5.20245 24.4475 6.07348 24.4823 10.2717 24.4823H15.2398L14.8849 23.941C13.2562 21.4575 13.6154 18.0484 15.7428 15.7977C17.498 13.9406 20.3314 13.2558 22.6265 14.134C23.1299 14.3265 23.3093 14.3469 23.3586 14.2171C23.3945 14.1224 23.4064 13.23 23.385 12.2337L23.346 10.4225L12.5584 10.3867L1.77084 10.3508L1.81424 15.7728ZM6.82113 13.8517C6.40121 14.0223 6.04076 14.7669 6.15444 15.2291C6.38582 16.1704 7.45011 16.5464 8.19943 15.9517C9.34177 15.0449 8.19277 13.2942 6.82113 13.8517ZM11.7594 14.119C10.9551 14.9308 11.4198 16.2283 12.515 16.2283C13.1865 16.2283 13.4134 16.1141 13.6468 15.6586C13.9594 15.0486 13.8973 14.5761 13.4444 14.119C12.8995 13.5692 12.3042 13.5692 11.7594 14.119ZM18.872 15.9441C16.8535 16.6772 15.6894 18.4864 15.8203 20.6873C15.9274 22.4903 16.8742 23.8986 18.5276 24.715C19.6231 25.2558 21.1998 25.2662 22.3229 24.7397C25.4929 23.2538 26.1259 19.2179 23.5549 16.8852C22.2706 15.72 20.4802 15.3602 18.872 15.9441ZM20.8826 19.2534L19.8223 20.3199L19.3901 19.9529C18.629 19.3066 17.7313 19.5969 17.7313 20.4893C17.7313 21.2178 19.3721 22.7699 19.9794 22.6162C20.1565 22.5713 20.9708 21.849 21.789 21.0111C23.3843 19.3775 23.5523 19.0246 22.9994 18.4667C22.4694 17.9318 22.0366 18.0927 20.8826 19.2534ZM6.54206 19.341C6.13628 19.7884 6.03439 20.2414 6.23166 20.722C6.4019 21.1368 6.9825 21.5444 7.40312 21.5444C7.86491 21.5444 8.42194 21.1231 8.57374 20.6589C8.85877 19.7874 8.31297 19.0262 7.40312 19.0262C6.98333 19.0262 6.75029 19.1114 6.54206 19.341Z" fill="black"/>
</svg>
