<svg width="30" height="31" viewBox="0 0 30 31" fill="none" xmlns="http://www.w3.org/2000/svg">
<path d="M18.75 3.75C18.75 5.82107 17.0711 7.5 15 7.5C12.9289 7.5 11.25 5.82107 11.25 3.75C11.25 1.67893 12.9289 0 15 0C17.0711 0 18.75 1.67893 18.75 3.75Z" fill="#FF7758"/>
<path d="M30 19.25C30 19.9404 29.4391 20.5048 28.7502 20.4597C26.3773 20.3044 24.3066 19.7047 22.5469 18.7519C21.0806 17.9579 18.75 18.9071 18.75 20.5747C18.75 21.2874 19.1756 21.9313 19.8313 22.2106L25.675 24.7C26.775 25.175 27.5 26.275 27.5 27.475C27.5 29.15 26.15 30.5 24.475 30.5H11.875C11.5298 30.5 11.25 30.2202 11.25 29.875C11.25 28.15 12.65 26.75 14.375 26.75H19.375C19.725 26.75 20 26.475 20 26.125C20 25.775 19.725 25.5 19.375 25.5H14.375C11.975 25.5 10 27.475 10 29.875C10 30.2202 9.72018 30.5 9.375 30.5H5.525C3.85 30.5 2.5 29.15 2.5 27.475C2.5 26.275 3.225 25.2 4.325 24.7L10.1786 22.1853C10.8287 21.906 11.25 21.2664 11.25 20.5589C11.25 18.8953 8.91777 17.9499 7.4566 18.7451C5.69622 19.7032 3.62424 20.3042 1.24981 20.4597C0.560934 20.5048 0 19.9404 0 19.25C0 18.5596 0.561122 18.0063 1.248 17.937C4.96161 17.5628 8.4078 15.547 10.275 12.6C11.125 11.225 12.725 10.5 14.325 10.5H15.675C17.275 10.5 18.875 11.225 19.725 12.6C21.5922 15.547 25.0384 17.5628 28.752 17.937C29.4389 18.0063 30 18.5596 30 19.25Z" fill="#FF7758"/>
</svg>
