<svg width="16" height="18" viewBox="0 0 16 18" fill="none" xmlns="http://www.w3.org/2000/svg">
<path fill-rule="evenodd" clip-rule="evenodd" d="M7.74974 0.497163C7.03883 0.624146 6.52354 1.28699 6.5223 2.07608C6.52209 2.1977 6.51673 2.20278 6.32445 2.26288C6.01203 2.36053 5.3988 2.68531 5.06122 2.93189C4.4459 3.38134 3.8707 4.04867 3.53566 4.7017C3.15041 5.45267 3.1105 5.62356 2.6357 8.55606C2.40945 9.95326 2.20871 11.1453 2.1896 11.2049C2.10958 11.4546 1.95428 11.6344 1.54929 11.9463C1.07487 12.3117 0.910944 12.4857 0.786375 12.7566C0.707453 12.9282 0.695801 12.9985 0.695801 13.3039C0.695801 13.6229 0.705322 13.6747 0.801912 13.8821C0.993612 14.2936 1.36481 14.5812 1.7975 14.6534C1.9108 14.6724 2.77202 14.6877 3.7286 14.6878L5.45521 14.688L5.47608 14.7843C5.59339 15.3261 5.81617 15.752 6.17836 16.127C6.88645 16.8601 7.90968 17.1021 8.85694 16.7604C9.23886 16.6226 9.48594 16.4634 9.78932 16.1596C10.1603 15.7882 10.408 15.3247 10.5244 14.7843L10.5451 14.688L12.2717 14.6878C13.2283 14.6877 14.0895 14.6724 14.2028 14.6534C14.6389 14.5807 15.006 14.2963 15.1986 13.8822C15.2949 13.6749 15.3045 13.6227 15.3045 13.3039C15.3045 12.7222 15.1599 12.4923 14.451 11.9463C14.0461 11.6345 13.8908 11.4547 13.8107 11.2049C13.7915 11.1453 13.5907 9.95326 13.3645 8.55606C12.8895 5.62265 12.8498 5.45246 12.4646 4.7017C12.1298 4.04895 11.5582 3.38551 10.9391 2.93101C10.6052 2.68588 9.99415 2.36278 9.67585 2.26302C9.4836 2.20278 9.4782 2.19767 9.478 2.07608C9.47741 1.69492 9.33631 1.27522 9.11711 1.00254C8.81329 0.624567 8.23437 0.41058 7.74974 0.497163ZM7.65322 1.31432C7.46193 1.41727 7.31038 1.63273 7.28821 1.83326L7.2713 1.98613H8.00015H8.729L8.71209 1.83326C8.6748 1.49593 8.36279 1.23278 8.00015 1.23278C7.8619 1.23278 7.76039 1.25665 7.65322 1.31432ZM7.53295 2.74019C6.40533 2.86142 5.31414 3.46649 4.63015 4.34973C4.22526 4.87259 3.92023 5.50183 3.78862 6.08577C3.76256 6.2014 3.56227 7.40763 3.34348 8.76629C3.12473 10.125 2.9146 11.3329 2.87655 11.4506C2.73902 11.8762 2.54791 12.1117 1.98487 12.5491C1.76052 12.7234 1.54403 12.9131 1.50378 12.9708C1.35436 13.1846 1.37175 13.4911 1.54475 13.6919C1.75519 13.9362 1.20796 13.9171 8.00015 13.9171C14.7923 13.9171 14.2451 13.9362 14.4555 13.6919C14.6355 13.4829 14.6429 13.1703 14.4731 12.9424C14.4255 12.8785 14.2407 12.7163 14.0624 12.5821C13.8841 12.4479 13.6742 12.2794 13.596 12.2078C13.4074 12.035 13.2111 11.7208 13.1247 11.4535C13.0861 11.3342 12.8756 10.125 12.6568 8.76629C12.2269 6.09656 12.2101 6.00567 12.0715 5.61273C11.4041 3.71961 9.51914 2.52659 7.53295 2.74019ZM6.22727 14.7843C6.28186 15.0238 6.50284 15.4055 6.70688 15.6129C7.43058 16.3483 8.56972 16.3483 9.29341 15.6129C9.49745 15.4055 9.71844 15.0238 9.77303 14.7843L9.79502 14.688H8.00015H6.20527L6.22727 14.7843Z" fill="#FF5530" stroke="white" stroke-width="0.2"/>
</svg>
