<svg width="39" height="39" viewBox="0 0 39 39" fill="none" xmlns="http://www.w3.org/2000/svg">
<path d="M31.6875 4.875H28.0312V3.65625C28.0312 3.33302 27.9028 3.02302 27.6743 2.79446C27.4457 2.5659 27.1357 2.4375 26.8125 2.4375C26.4893 2.4375 26.1793 2.5659 25.9507 2.79446C25.7222 3.02302 25.5938 3.33302 25.5938 3.65625V4.875H13.4062V3.65625C13.4062 3.33302 13.2778 3.02302 13.0493 2.79446C12.8207 2.5659 12.5107 2.4375 12.1875 2.4375C11.8643 2.4375 11.5543 2.5659 11.3257 2.79446C11.0972 3.02302 10.9688 3.33302 10.9688 3.65625V4.875H7.3125C6.66603 4.875 6.04605 5.13181 5.58893 5.58893C5.13181 6.04605 4.875 6.66603 4.875 7.3125V31.6875C4.875 32.334 5.13181 32.954 5.58893 33.4111C6.04605 33.8682 6.66603 34.125 7.3125 34.125H31.6875C32.334 34.125 32.954 33.8682 33.4111 33.4111C33.8682 32.954 34.125 32.334 34.125 31.6875V7.3125C34.125 6.66603 33.8682 6.04605 33.4111 5.58893C32.954 5.13181 32.334 4.875 31.6875 4.875ZM10.9688 7.3125V8.53125C10.9688 8.85448 11.0972 9.16448 11.3257 9.39304C11.5543 9.6216 11.8643 9.75 12.1875 9.75C12.5107 9.75 12.8207 9.6216 13.0493 9.39304C13.2778 9.16448 13.4062 8.85448 13.4062 8.53125V7.3125H25.5938V8.53125C25.5938 8.85448 25.7222 9.16448 25.9507 9.39304C26.1793 9.6216 26.4893 9.75 26.8125 9.75C27.1357 9.75 27.4457 9.6216 27.6743 9.39304C27.9028 9.16448 28.0312 8.85448 28.0312 8.53125V7.3125H31.6875V12.1875H7.3125V7.3125H10.9688ZM31.6875 31.6875H7.3125V14.625H31.6875V31.6875ZM25.8466 18.6377C25.96 18.7509 26.0499 18.8853 26.1112 19.0333C26.1725 19.1812 26.2041 19.3398 26.2041 19.5C26.2041 19.6602 26.1725 19.8188 26.1112 19.9667C26.0499 20.1147 25.96 20.2491 25.8466 20.3623L18.5341 27.6748C18.421 27.7881 18.2865 27.878 18.1386 27.9393C17.9906 28.0006 17.832 28.0322 17.6719 28.0322C17.5117 28.0322 17.3531 28.0006 17.2052 27.9393C17.0572 27.878 16.9228 27.7881 16.8096 27.6748L13.1534 24.0185C12.9247 23.7898 12.7962 23.4797 12.7962 23.1562C12.7962 22.8328 12.9247 22.5227 13.1534 22.294C13.382 22.0653 13.6922 21.9368 14.0156 21.9368C14.339 21.9368 14.6492 22.0653 14.8779 22.294L17.6719 25.0895L24.1221 18.6377C24.2353 18.5244 24.3697 18.4345 24.5177 18.3732C24.6656 18.3119 24.8242 18.2803 24.9844 18.2803C25.1445 18.2803 25.3031 18.3119 25.4511 18.3732C25.599 18.4345 25.7335 18.5244 25.8466 18.6377Z" fill="black"/>
</svg>
