<svg width="39" height="39" viewBox="0 0 39 39" fill="none" xmlns="http://www.w3.org/2000/svg">
<path d="M32.9062 7.3125H6.09373C5.44727 7.3125 4.82728 7.56931 4.37016 8.02643C3.91304 8.48355 3.65623 9.10353 3.65623 9.75V34.125C3.65342 34.5898 3.78491 35.0455 4.0349 35.4374C4.28489 35.8293 4.64273 36.1406 5.06541 36.334C5.38751 36.484 5.73843 36.5619 6.09373 36.5625C6.66594 36.5611 7.21917 36.3571 7.65526 35.9866L7.66897 35.976L12.6445 31.6875H32.9062C33.5527 31.6875 34.1727 31.4307 34.6298 30.9736C35.0869 30.5165 35.3437 29.8965 35.3437 29.25V9.75C35.3437 9.10353 35.0869 8.48355 34.6298 8.02643C34.1727 7.56931 33.5527 7.3125 32.9062 7.3125ZM32.9062 29.25H12.1875C11.8948 29.2502 11.612 29.3556 11.3907 29.5471L6.09373 34.125V9.75H32.9062V29.25Z" fill="black"/>
</svg>
