<svg width="27" height="27" viewBox="0 0 27 27" fill="none" xmlns="http://www.w3.org/2000/svg">
<path fill-rule="evenodd" clip-rule="evenodd" d="M11.974 0.188997C10.2391 0.353415 8.73046 1.41436 7.92595 3.03567C7.18645 4.526 7.21141 6.29809 7.9914 7.68145C8.35111 8.31944 8.22163 8.18115 12.5805 12.5819C14.8173 14.8401 16.6837 16.7105 16.7283 16.7384C16.8437 16.8107 16.9848 16.8304 17.1212 16.7934C17.2282 16.7644 17.6113 16.3862 21.2667 12.7005C23.7546 10.192 25.3618 8.55107 25.4709 8.40811C26.0914 7.5953 26.4308 6.71037 26.5215 5.66903C26.5896 4.88664 26.4503 4.00478 26.1437 3.27894C25.1975 1.03834 22.737 -0.252937 20.4287 0.279687C19.7637 0.433133 19.064 0.770273 18.4842 1.21664C18.3083 1.35204 18.1561 1.49239 17.4623 2.15872C17.2123 2.39885 16.9986 2.59872 16.9876 2.60283C16.9765 2.60694 16.6793 2.33278 16.3271 1.9936C15.9748 1.65439 15.5989 1.30663 15.4916 1.22076C14.5291 0.450231 13.232 0.0698011 11.974 0.188997ZM11.9605 1.14014C10.2967 1.34885 8.86528 2.64081 8.4479 4.31059C8.21904 5.22598 8.30268 6.12373 8.69491 6.96303C8.9222 7.44932 9.12999 7.73037 9.69954 8.32194C10.6419 9.30072 16.9421 15.6502 16.9709 15.6502C16.9865 15.6502 18.7443 13.8891 20.8772 11.7365C24.307 8.275 24.7745 7.79335 24.9227 7.5683C25.2196 7.11749 25.4201 6.63733 25.5384 6.09389C25.5786 5.90876 25.5885 5.75082 25.5877 5.30434C25.5868 4.7905 25.5807 4.72026 25.5109 4.41949C25.1411 2.82649 23.9973 1.61962 22.4937 1.23617C21.5979 1.00768 20.6245 1.10507 19.8078 1.50489C19.2353 1.78521 18.8252 2.11353 17.9844 2.96494C17.4913 3.46432 17.3168 3.62392 17.2025 3.68011C17.0333 3.76329 16.9108 3.77143 16.7878 3.70761C16.7402 3.68295 16.4277 3.39198 16.0932 3.06099C15.7587 2.73001 15.3722 2.36136 15.2342 2.24176C14.5505 1.64924 13.9641 1.33894 13.2487 1.19113C12.9317 1.12566 12.2813 1.0999 11.9605 1.14014ZM16.6878 4.45192C16.4321 4.49507 16.0652 4.67335 15.8601 4.85416C15.6756 5.01686 15.4869 5.30159 15.399 5.55C15.3329 5.73663 15.3257 5.79887 15.3118 6.29809L15.2966 6.84261L14.7428 6.85775C14.2281 6.87183 14.1763 6.87795 14.0082 6.94446C13.1616 7.27943 12.7385 8.14938 12.9985 9.0207C13.09 9.32737 13.403 9.71997 13.7013 9.9022C13.7813 9.95107 13.936 10.0228 14.0449 10.0617C14.2262 10.1262 14.2886 10.1333 14.7766 10.1443L15.3101 10.1563L15.3106 10.6094C15.3111 11.1557 15.3481 11.3604 15.5017 11.6681C15.7 12.0651 16.1107 12.392 16.5604 12.5107C16.7913 12.5717 17.1967 12.5706 17.4037 12.5085C17.9498 12.3447 18.3691 11.9263 18.5386 11.3758C18.5727 11.265 18.5884 11.0865 18.5986 10.6907L18.6125 10.1553L19.1562 10.1453C19.6626 10.1359 19.7134 10.1303 19.8979 10.0632C20.1811 9.96013 20.3743 9.83669 20.5792 9.62768C21.1429 9.05272 21.1919 8.1839 20.6979 7.52109C20.5118 7.2715 20.1994 7.04131 19.9008 6.93379C19.745 6.87768 19.6686 6.87016 19.1694 6.86175L18.612 6.85236L18.5982 6.31658C18.5831 5.72942 18.5597 5.60298 18.4106 5.30456C18.2815 5.04602 17.9741 4.74144 17.7143 4.61454C17.6029 4.56014 17.4393 4.49703 17.3507 4.47435C17.2028 4.43645 16.8502 4.42453 16.6878 4.45192ZM16.7417 5.40984C16.5295 5.47995 16.3617 5.63418 16.2973 5.81834C16.264 5.91336 16.2556 6.0738 16.2556 6.61329C16.2556 7.36756 16.2338 7.53581 16.1214 7.6491C16.0011 7.77031 15.8732 7.78812 15.094 7.79198L14.3782 7.79552L14.2296 7.87949C13.7541 8.14818 13.7457 8.87275 14.2152 9.11485C14.3475 9.18305 14.3606 9.18424 15.1202 9.19767C15.8503 9.21057 15.8974 9.21452 16.0142 9.27251C16.2313 9.38035 16.2383 9.41155 16.2548 10.3412C16.2689 11.1357 16.2698 11.1456 16.337 11.2668C16.4709 11.5086 16.8123 11.6568 17.0946 11.5957C17.3459 11.5414 17.4912 11.4383 17.5963 11.2396C17.6413 11.1547 17.6482 11.0569 17.6603 10.3412C17.6722 9.63385 17.6797 9.52599 17.7234 9.4375C17.8264 9.22884 17.9753 9.19775 18.8741 9.19739C19.5158 9.19715 19.5422 9.195 19.6728 9.13268C20.2551 8.85473 20.2371 8.11401 19.6414 7.84284C19.5519 7.80211 19.4398 7.79533 18.8219 7.79326C18.0404 7.79068 17.9178 7.77339 17.7936 7.64823C17.6759 7.52961 17.6606 7.41711 17.6604 6.6709C17.6603 6.25905 17.6483 5.93386 17.6305 5.8625C17.5936 5.71518 17.4481 5.53925 17.2995 5.46244C17.1781 5.39977 16.8623 5.36998 16.7417 5.40984ZM6.94946 15.8857C6.90489 15.891 6.75294 15.9087 6.6118 15.9251C6.01261 15.9949 5.42729 16.1984 4.78067 16.5617C4.55356 16.6893 4.35831 16.7937 4.3468 16.7937C4.33527 16.7937 4.26765 16.6884 4.19656 16.5597C3.98385 16.1747 3.78214 16.0246 3.56015 16.0862C3.45598 16.1151 3.40282 16.145 2.33017 16.7793C1.92902 17.0165 1.32122 17.3751 0.979501 17.5762C0.637781 17.7773 0.335636 17.9622 0.308055 17.9872C0.210861 18.0751 0.148838 18.2379 0.161562 18.3716C0.173799 18.4998 0.189304 18.5273 2.74448 22.9468C3.03452 23.4485 3.31 23.9263 3.35671 24.0086C3.67757 24.5746 4.81954 26.5452 4.87257 26.6244C4.95801 26.752 5.11671 26.8402 5.26088 26.8402C5.39449 26.8402 5.47024 26.8039 6.10311 26.4372C6.3606 26.288 7.01497 25.9121 7.55727 25.6019C8.09956 25.2916 8.57216 25.0114 8.60752 24.9793C8.68694 24.9069 8.74586 24.7722 8.74586 24.6629C8.74586 24.6175 8.75375 24.5804 8.76336 24.5804C8.77301 24.5804 9.07388 24.6674 9.43194 24.7737C9.79003 24.88 10.1803 24.9956 10.2991 25.0305C10.418 25.0654 10.965 25.2282 11.5147 25.3924C14.7232 26.3503 14.5556 26.3095 15.1886 26.2878C15.5002 26.2772 15.6533 26.2583 15.8516 26.2061C16.2249 26.1079 16.6315 25.9393 16.9714 25.7419C17.1349 25.6471 18.1256 25.0693 19.173 24.458C20.2205 23.8468 21.2598 23.2406 21.4827 23.1109C23.7285 21.8045 25.6034 20.7096 25.7902 20.5954C26.0762 20.4204 26.3941 20.107 26.5447 19.8514C27.0533 18.9883 26.8922 17.8497 26.1583 17.1205C25.6371 16.6025 24.8913 16.3932 24.184 16.5666C23.8877 16.6392 23.7455 16.7073 22.6509 17.3011C22.0529 17.6254 20.9316 18.2331 20.159 18.6515C19.3864 19.0698 18.6145 19.4893 18.4437 19.5835C17.8355 19.9189 17.3633 20.1698 17.34 20.1698C17.327 20.1698 17.2906 20.1075 17.2592 20.0313C17.1673 19.8084 16.9683 19.5302 16.774 19.3528C16.5482 19.1467 16.3021 19.0225 15.4587 18.6887C15.1021 18.5476 14.2937 18.2152 13.6623 17.9502C10.7137 16.7125 9.23674 16.1703 8.29103 15.9785C7.86227 15.8916 7.25642 15.8497 6.94946 15.8857ZM6.88193 16.838C6.46041 16.8918 6.08242 16.99 5.74375 17.134C5.4744 17.2485 4.82891 17.607 4.82891 17.6421C4.82891 17.6564 5.01312 17.989 5.23822 18.3812C5.46335 18.7735 5.71085 19.2046 5.78824 19.3394C5.86561 19.4741 6.08658 19.8601 6.27929 20.197C6.63562 20.82 6.91702 21.3105 7.68412 22.6459L8.11339 23.3932L8.69302 23.5655C9.0118 23.6602 9.45496 23.7918 9.67782 23.8579C9.90068 23.9239 10.624 24.1388 11.2851 24.3355C14.9674 25.4307 14.6352 25.3423 15.0703 25.3425C15.4572 25.3428 15.7889 25.2655 16.155 25.0898C16.2921 25.0241 16.8722 24.6968 17.4442 24.3627C18.0162 24.0285 18.5997 23.6878 18.7408 23.6056C18.882 23.5234 20.0489 22.8435 21.3341 22.0947C24.2423 20.4003 24.3806 20.3198 24.9246 20.0047C25.4124 19.7221 25.6135 19.5579 25.7339 19.3443C26.0863 18.7184 25.8366 17.8926 25.1992 17.5758C25.0482 17.5007 24.9914 17.4882 24.7617 17.4789C24.3255 17.4612 24.2764 17.4829 22.2796 18.5773C22.1087 18.671 21.4827 19.011 20.8884 19.333C18.0164 20.8891 17.4285 21.2107 17.4008 21.2404C17.3843 21.258 17.3495 21.3521 17.3234 21.4494C17.1587 22.0626 16.8688 22.5066 16.5257 22.6713C16.396 22.7336 16.3445 22.7423 16.1205 22.7402C15.8789 22.7378 15.8331 22.7272 15.3371 22.5586C15.0474 22.4602 13.7766 22.0358 12.5131 21.6156C10.095 20.8114 10.142 20.8299 10.0458 20.6412C10.0041 20.5594 10.0078 20.3496 10.0527 20.2438C10.1315 20.0581 10.3552 19.9296 10.5287 19.9703C10.5659 19.9791 11.4654 20.2778 12.5277 20.6342C15.0974 21.4964 16.0463 21.8033 16.1421 21.8033C16.1905 21.8033 16.3215 21.5205 16.418 21.2076C16.5299 20.8447 16.5243 20.6666 16.393 20.4058C16.2885 20.1984 16.0596 19.9531 15.9122 19.8905C15.8559 19.8666 15.4817 19.7162 15.0805 19.5562C14.6794 19.3962 13.8467 19.0537 13.2301 18.7951C10.3382 17.582 8.86852 17.0435 8.02806 16.8891C7.79339 16.8459 7.07202 16.8138 6.88193 16.838ZM2.37593 17.8507C1.57382 18.3249 1.29002 18.5056 1.29818 18.5369C1.30426 18.5604 1.85414 19.5224 2.52016 20.6747C3.18617 21.827 3.76945 22.8372 3.81631 22.9196C3.86318 23.002 4.15998 23.5165 4.47587 24.0631C4.79174 24.6097 5.13659 25.2064 5.24224 25.3892L5.43428 25.7215L5.57057 25.6435C6.42062 25.157 7.62612 24.4647 7.63096 24.4602C7.63434 24.4571 7.5084 24.2286 7.35107 23.9525C6.88374 23.1322 5.74939 21.1533 5.61198 20.9185C5.54185 20.7987 5.04351 19.9288 4.50451 18.9854C3.96551 18.0421 3.51106 17.256 3.49461 17.2386C3.47224 17.215 3.1916 17.3685 2.37593 17.8507Z" fill="white"/>
</svg>
