<svg width="28" height="28" viewBox="0 0 28 28" fill="none" xmlns="http://www.w3.org/2000/svg">
<path d="M24.5 15.75V22.75C24.5 22.9821 24.4078 23.2046 24.2437 23.3687C24.0796 23.5328 23.8571 23.625 23.625 23.625H4.375C4.14294 23.625 3.92038 23.5328 3.75628 23.3687C3.59219 23.2046 3.5 22.9821 3.5 22.75V15.75C3.5 15.5179 3.59219 15.2954 3.75628 15.1313C3.92038 14.9672 4.14294 14.875 4.375 14.875C4.60706 14.875 4.82962 14.9672 4.99372 15.1313C5.15781 15.2954 5.25 15.5179 5.25 15.75V21.875H22.75V15.75C22.75 15.5179 22.8422 15.2954 23.0063 15.1313C23.1704 14.9672 23.3929 14.875 23.625 14.875C23.8571 14.875 24.0796 14.9672 24.2437 15.1313C24.4078 15.2954 24.5 15.5179 24.5 15.75ZM13.3809 16.3691C13.4622 16.4504 13.5587 16.515 13.6649 16.559C13.7712 16.603 13.885 16.6257 14 16.6257C14.115 16.6257 14.2288 16.603 14.3351 16.559C14.4413 16.515 14.5378 16.4504 14.6191 16.3691L18.9941 11.9941C19.0754 11.9128 19.1398 11.8163 19.1838 11.71C19.2278 11.6038 19.2505 11.49 19.2505 11.375C19.2505 11.26 19.2278 11.1462 19.1838 11.04C19.1398 10.9337 19.0754 10.8372 18.9941 10.7559C18.9128 10.6746 18.8163 10.6102 18.71 10.5662C18.6038 10.5222 18.49 10.4995 18.375 10.4995C18.26 10.4995 18.1462 10.5222 18.04 10.5662C17.9337 10.6102 17.8372 10.6746 17.7559 10.7559L14.875 13.638V3.5C14.875 3.26794 14.7828 3.04538 14.6187 2.88128C14.4546 2.71719 14.2321 2.625 14 2.625C13.7679 2.625 13.5454 2.71719 13.3813 2.88128C13.2172 3.04538 13.125 3.26794 13.125 3.5V13.638L10.2441 10.7559C10.0799 10.5918 9.85719 10.4995 9.625 10.4995C9.39281 10.4995 9.17012 10.5918 9.00594 10.7559C8.84175 10.9201 8.74951 11.1428 8.74951 11.375C8.74951 11.6072 8.84175 11.8299 9.00594 11.9941L13.3809 16.3691Z" fill="#FF7758"/>
</svg>
