<svg width="13" height="14" viewBox="0 0 13 14" fill="none" xmlns="http://www.w3.org/2000/svg">
<path d="M12.6451 3.89247L9.82987 1.07661C9.73625 0.98297 9.6251 0.90869 9.50278 0.858012C9.38045 0.807334 9.24933 0.78125 9.11692 0.78125C8.98451 0.78125 8.8534 0.807334 8.73107 0.858012C8.60875 0.90869 8.4976 0.98297 8.40398 1.07661L0.634383 8.84684C0.540361 8.94011 0.465818 9.05115 0.415087 9.17348C0.364356 9.29582 0.338449 9.42702 0.338872 9.55946V12.3753C0.338872 12.6427 0.445087 12.8991 0.634149 13.0882C0.823212 13.2772 1.07964 13.3835 1.34701 13.3835H4.16287C4.29531 13.3839 4.42651 13.358 4.54885 13.3072C4.67119 13.2565 4.78222 13.182 4.8755 13.0879L12.6451 5.31835C12.7387 5.22473 12.813 5.11359 12.8637 4.99126C12.9144 4.86893 12.9405 4.73782 12.9405 4.60541C12.9405 4.473 12.9144 4.34189 12.8637 4.21956C12.813 4.09723 12.7387 3.98608 12.6451 3.89247ZM4.16287 12.3753H1.34701V9.55946L6.89177 4.0147L9.70763 6.83056L4.16287 12.3753ZM10.4203 6.1173L7.6044 3.30207L9.11661 1.78987L11.9325 4.60509L10.4203 6.1173Z" fill="#FF5530"/>
</svg>
