<svg width="19" height="19" viewBox="0 0 19 19" fill="none" xmlns="http://www.w3.org/2000/svg">
<path d="M18.4233 4.59162L14.4082 0.5774C14.2747 0.443881 14.1162 0.337966 13.9418 0.265705C13.7673 0.193443 13.5804 0.15625 13.3916 0.15625C13.2028 0.15625 13.0158 0.193443 12.8414 0.265705C12.667 0.337966 12.5085 0.443881 12.375 0.5774L1.29637 11.656C1.16231 11.789 1.05602 11.9474 0.983681 12.1218C0.911344 12.2962 0.874404 12.4833 0.875007 12.6722V16.6873C0.875007 17.0685 1.02646 17.4342 1.29604 17.7038C1.56562 17.9733 1.93126 18.1248 2.31251 18.1248H17.4063C17.5969 18.1248 17.7797 18.0491 17.9145 17.9143C18.0493 17.7795 18.125 17.5967 18.125 17.406C18.125 17.2154 18.0493 17.0326 17.9145 16.8978C17.7797 16.763 17.5969 16.6873 17.4063 16.6873H8.36079L18.4233 6.62478C18.5568 6.49129 18.6627 6.33281 18.735 6.15838C18.8072 5.98396 18.8444 5.797 18.8444 5.6082C18.8444 5.4194 18.8072 5.23244 18.735 5.05802C18.6627 4.88359 18.5568 4.72511 18.4233 4.59162ZM6.32762 16.6873H2.31251V12.6722L10.2188 4.76592L14.2339 8.78103L6.32762 16.6873ZM15.25 7.7649L11.2358 3.74978L13.392 1.59353L17.4063 5.60865L15.25 7.7649Z" fill="#FF7758"/>
</svg>
