<svg width="35" height="35" viewBox="0 0 35 35" fill="none" xmlns="http://www.w3.org/2000/svg">
<rect width="35" height="35" rx="7" fill="url(#paint0_linear_262_527)"/>
<path d="M17.5 8C15.6211 8 13.7844 8.55717 12.2221 9.60104C10.6598 10.6449 9.44218 12.1286 8.72315 13.8645C8.00412 15.6004 7.81598 17.5105 8.18254 19.3534C8.5491 21.1962 9.45389 22.8889 10.7825 24.2175C12.1111 25.5461 13.8038 26.4509 15.6466 26.8175C17.4895 27.184 19.3996 26.9959 21.1355 26.2769C22.8714 25.5578 24.3551 24.3402 25.399 22.7779C26.4428 21.2156 27 19.3789 27 17.5C26.9973 14.9813 25.9956 12.5664 24.2146 10.7854C22.4336 9.0044 20.0187 8.00266 17.5 8ZM17.5 25.5385C15.9101 25.5385 14.356 25.067 13.0341 24.1837C11.7122 23.3005 10.6818 22.045 10.0734 20.5762C9.46502 19.1073 9.30583 17.4911 9.616 15.9318C9.92616 14.3725 10.6918 12.9401 11.816 11.8159C12.9402 10.6918 14.3725 9.92616 15.9318 9.61599C17.4911 9.30583 19.1074 9.46502 20.5762 10.0734C22.045 10.6818 23.3005 11.7122 24.1837 13.0341C25.067 14.356 25.5385 15.9101 25.5385 17.5C25.536 19.6312 24.6884 21.6744 23.1814 23.1814C21.6744 24.6884 19.6312 25.536 17.5 25.5385ZM21.5576 12.4613L15.7114 15.3844C15.5701 15.4554 15.4554 15.5701 15.3844 15.7114L12.4613 21.5576C12.4056 21.669 12.3792 21.7929 12.3848 21.9174C12.3904 22.0419 12.4278 22.1629 12.4933 22.2689C12.5589 22.3749 12.6504 22.4624 12.7593 22.523C12.8682 22.5837 12.9908 22.6155 13.1154 22.6154C13.2288 22.6152 13.3407 22.589 13.4424 22.5387L19.2886 19.6156C19.4299 19.5446 19.5446 19.4299 19.6156 19.2886L22.5387 13.4424C22.6076 13.3051 22.6316 13.1496 22.6071 12.998C22.5827 12.8463 22.511 12.7062 22.4024 12.5976C22.2938 12.489 22.1537 12.4173 22.002 12.3929C21.8504 12.3684 21.6949 12.3924 21.5576 12.4613ZM18.4135 18.4135L14.7496 20.2504L16.5865 16.5865L20.2541 14.7532L18.4135 18.4135Z" fill="white"/>
<defs>
<linearGradient id="paint0_linear_262_527" x1="35" y1="17.5" x2="0" y2="17.5" gradientUnits="userSpaceOnUse">
<stop stop-color="#FE874A"/>
<stop offset="0.5" stop-color="#FF6642"/>
<stop offset="1" stop-color="#FF3531"/>
</linearGradient>
</defs>
</svg>
