<svg width="39" height="39" viewBox="0 0 39 39" fill="none" xmlns="http://www.w3.org/2000/svg">
<path d="M33.4105 17.2597L21.223 5.55982C20.766 5.12132 20.1462 4.875 19.5 4.875C18.8538 4.875 18.2341 5.12132 17.777 5.55982L5.58951 17.2597C5.36206 17.4764 5.18177 17.7344 5.05911 18.0186C4.93645 18.3028 4.87387 18.6076 4.87502 18.9152V32.955C4.87502 33.2653 5.00342 33.5629 5.23198 33.7823C5.46054 34.0017 5.77053 34.125 6.09377 34.125H32.9063C33.2295 34.125 33.5395 34.0017 33.7681 33.7823C33.9966 33.5629 34.125 33.2653 34.125 32.955V18.9152C34.1262 18.6076 34.0636 18.3028 33.9409 18.0186C33.8183 17.7344 33.638 17.4764 33.4105 17.2597ZM31.6875 29.785C31.6875 30.8896 30.7921 31.785 29.6875 31.785H9.31252C8.20795 31.785 7.31252 30.8896 7.31252 29.785V19.7676C7.31252 19.223 7.5346 18.702 7.92746 18.3249L18.115 8.54498C18.8889 7.80203 20.1111 7.80203 20.8851 8.54498L31.0726 18.3249C31.4654 18.702 31.6875 19.223 31.6875 19.7676V29.785Z" fill="#FF7758"/>
</svg>
