<svg width="22" height="22" viewBox="0 0 22 22" fill="none" xmlns="http://www.w3.org/2000/svg">
<path fill-rule="evenodd" clip-rule="evenodd" d="M1.86667 0.131212C0.799579 0.488129 0 1.63474 0 2.80813C0 3.79736 0.66994 4.89152 1.55548 5.3488C2.19211 5.67745 3.12475 5.66396 3.74759 5.31716C4.7004 4.7865 5.22646 3.87154 5.21739 2.76083C5.21054 1.93057 4.94386 1.31978 4.32944 0.727726C3.62008 0.0442392 2.75397 -0.165507 1.86667 0.131212ZM18.5862 0.133592C18.0334 0.323604 17.2914 1.04001 17.0217 1.64407C16.7296 2.2981 16.725 3.22783 17.0105 3.9013C17.4626 4.96788 18.3254 5.5754 19.3857 5.57381C21.7103 5.57024 22.8722 2.58688 21.2333 0.830268C20.5669 0.116039 19.4739 -0.171557 18.5862 0.133592ZM2.26706 6.39485C1.39077 6.62314 0.83687 7.08379 0.49533 7.86814C0.282041 8.35784 0.279358 8.40693 0.278987 11.835C0.278802 14.0258 0.31563 15.4488 0.378923 15.6932C0.513929 16.2142 1.30842 17.0579 1.81513 17.2184C2.0472 17.2919 2.79718 17.339 3.73519 17.339H5.27439V19.5054C5.27439 21.4782 5.28947 21.6864 5.44363 21.8359C5.58669 21.9746 5.84893 22 7.14115 22C8.57773 22 8.67998 21.9875 8.8457 21.791C9.01171 21.5944 9.02198 21.3875 9.02198 18.2457C9.02198 15.0194 9.01541 14.8962 8.82275 14.5126C8.34834 13.5677 7.90797 13.3721 6.25459 13.3721H5.00798L4.9793 10.7689L4.95052 8.16565L4.69791 7.705C4.41744 7.19387 3.98448 6.76228 3.56253 6.57336C3.23079 6.4248 2.52532 6.32761 2.26706 6.39485ZM18.7577 6.46824C18.2014 6.63336 17.7077 7.05523 17.35 7.67138L17.0724 8.14948L17.0436 10.7608L17.0149 13.3721H15.7683C14.1149 13.3721 13.6745 13.5677 13.2001 14.5126C13.0075 14.8962 13.0009 15.0194 13.0009 18.2457C13.0009 21.3875 13.0112 21.5944 13.1772 21.791C13.343 21.9876 13.4449 22 14.8978 22C16.2765 22 16.4587 21.9806 16.5954 21.8186C16.728 21.6616 16.7485 21.3487 16.7485 19.4881V17.339H18.2877C19.2257 17.339 19.9757 17.2919 20.2078 17.2184C20.7145 17.0579 21.509 16.2142 21.644 15.6932C21.7073 15.4488 21.7441 14.0258 21.7439 11.835C21.7434 8.39047 21.7418 8.36022 21.5244 7.86814C21.0129 6.71051 19.8775 6.13601 18.7577 6.46824Z" fill="#FF5530" fill-opacity="0.72"/>
</svg>
