<svg width="4" height="20" viewBox="0 0 4 20" fill="none" xmlns="http://www.w3.org/2000/svg">
<path d="M3.40625 10C3.40625 10.2781 3.32377 10.55 3.16925 10.7813C3.01473 11.0125 2.79511 11.1928 2.53815 11.2992C2.28119 11.4056 1.99844 11.4335 1.72565 11.3792C1.45287 11.325 1.2023 11.191 1.00563 10.9944C0.808964 10.7977 0.675032 10.5471 0.620771 10.2743C0.566511 10.0016 0.594359 9.71881 0.700795 9.46185C0.807231 9.20489 0.987474 8.98527 1.21873 8.83075C1.44999 8.67623 1.72187 8.59375 2 8.59375C2.37296 8.59375 2.73065 8.74191 2.99437 9.00563C3.25809 9.26935 3.40625 9.62704 3.40625 10ZM2 3.4375C2.27813 3.4375 2.55001 3.35503 2.78127 3.20051C3.01253 3.04598 3.19277 2.82636 3.29921 2.5694C3.40564 2.31244 3.43349 2.02969 3.37923 1.75691C3.32497 1.48412 3.19104 1.23355 2.99437 1.03688C2.7977 0.840214 2.54713 0.706282 2.27435 0.652021C2.00156 0.597761 1.71881 0.625609 1.46185 0.732045C1.20489 0.838481 0.985267 1.01872 0.830746 1.24998C0.676226 1.48124 0.593751 1.75312 0.593751 2.03125C0.593751 2.40421 0.741909 2.7619 1.00563 3.02562C1.26935 3.28934 1.62704 3.4375 2 3.4375ZM2 16.5625C1.72187 16.5625 1.44999 16.645 1.21873 16.7995C0.987474 16.954 0.807231 17.1736 0.700795 17.4306C0.594359 17.6876 0.566511 17.9703 0.620771 18.2431C0.675032 18.5159 0.808964 18.7665 1.00563 18.9631C1.2023 19.1598 1.45287 19.2937 1.72565 19.348C1.99844 19.4022 2.28119 19.3744 2.53815 19.268C2.79511 19.1615 3.01473 18.9813 3.16925 18.75C3.32377 18.5188 3.40625 18.2469 3.40625 17.9688C3.40625 17.5958 3.25809 17.2381 2.99437 16.9744C2.73065 16.7107 2.37296 16.5625 2 16.5625Z" fill="black"/>
</svg>
