<svg width="33" height="33" viewBox="0 0 33 33" fill="none" xmlns="http://www.w3.org/2000/svg">
<path fill-rule="evenodd" clip-rule="evenodd" d="M20.3254 4.06506C20.3254 6.31013 18.5054 8.13012 16.2604 8.13012C14.0153 8.13012 12.1953 6.31013 12.1953 4.06506C12.1953 1.81999 14.0153 0 16.2604 0C18.5054 0 20.3254 1.81999 20.3254 4.06506ZM32.5205 20.3255C32.5205 21.0738 31.9124 21.6857 31.1657 21.6368C28.5935 21.4684 26.3487 20.8184 24.4412 19.7856C22.8517 18.9249 20.3253 19.9538 20.3253 21.7614C20.3253 22.5341 20.7866 23.232 21.4974 23.5348L27.8321 26.2334C29.0245 26.7483 29.8104 27.9407 29.8104 29.2415C29.8104 31.0572 28.347 32.5206 26.5313 32.5206H12.8727C12.4985 32.5206 12.1952 32.2173 12.1952 31.8431C12.1952 29.9732 13.7128 28.4556 15.5827 28.4556H21.0028C21.3822 28.4556 21.6803 28.1575 21.6803 27.7781C21.6803 27.3987 21.3822 27.1006 21.0028 27.1006H15.5827C12.9811 27.1006 10.8402 29.2415 10.8402 31.8431C10.8402 32.2173 10.5368 32.5206 10.1626 32.5206H5.98919C4.17346 32.5206 2.71004 31.0572 2.71004 29.2415C2.71004 27.9407 3.49595 26.7754 4.68837 26.2334L11.0337 23.5074C11.7384 23.2046 12.1952 22.5113 12.1952 21.7443C12.1952 19.941 9.667 18.9161 8.08307 19.7782C6.17479 20.8168 3.92874 21.4682 1.35482 21.6368C0.608061 21.6857 0 21.0738 0 20.3255C0 19.5771 0.608264 18.9772 1.35285 18.9022C5.37847 18.4966 9.11419 16.3114 11.1383 13.1168C12.0597 11.6262 13.7941 10.8403 15.5285 10.8403H16.9919C18.7264 10.8403 20.4608 11.6262 21.3822 13.1168C23.4063 16.3114 27.142 18.4966 31.1676 18.9022C31.9122 18.9772 32.5205 19.5771 32.5205 20.3255Z" fill="#FF7758"/>
</svg>
