<svg width="27" height="27" viewBox="0 0 27 27" fill="none" xmlns="http://www.w3.org/2000/svg">
<path fill-rule="evenodd" clip-rule="evenodd" d="M9.29481 0.0393575C7.73319 0.285617 6.29678 1.19744 5.43853 2.48744C2.94978 6.22799 5.62133 11.2286 10.1085 11.2286C13.0134 11.2286 15.3902 9.07035 15.705 6.14659C15.9956 3.44655 14.1677 0.850246 11.4918 0.162408C10.9142 0.0139134 9.83819 -0.0463714 9.29481 0.0393575ZM9.53108 1.1475C7.62857 1.41092 6.07666 2.86134 5.69887 4.72916C5.59103 5.26217 5.61537 6.27693 5.74775 6.76797C5.88384 7.2729 6.32106 8.10263 6.66575 8.51C8.04547 10.1409 10.333 10.5834 12.2159 9.58357C14.5557 8.34124 15.3196 5.32367 13.8506 3.12702C13.5406 2.66365 12.8737 2.01667 12.45 1.7683C11.5723 1.25387 10.4644 1.01822 9.53108 1.1475ZM4.40762 13.5334C3.149 13.7455 2.32147 14.1609 1.47869 15.0037C0.757689 15.7248 0.348282 16.4443 0.0929032 17.4391C0.0100293 17.7618 0 18.0987 0 20.5578V23.3148L0.146323 23.4612L0.292698 23.6076L3.88515 23.6218L7.4776 23.6361L7.65818 23.4556C7.8878 23.2259 7.90865 22.9294 7.71134 22.6999L7.58396 22.5518L4.34623 22.5254L1.1085 22.499L1.10972 20.2555C1.11077 18.3164 1.12318 17.9638 1.20109 17.6567C1.56906 16.2067 2.67598 15.0992 4.13155 14.7249C4.45751 14.641 4.95005 14.6335 10.1085 14.6335C15.267 14.6335 15.7595 14.641 16.0855 14.7249C16.7594 14.8982 17.3718 15.2326 17.8758 15.7024C18.1562 15.9638 18.348 16.0348 18.5958 15.9689C18.8071 15.9127 18.976 15.6598 18.9765 15.3989C18.9768 15.2378 18.9271 15.1669 18.588 14.8447C18.0006 14.2863 17.2128 13.8591 16.3304 13.6205C16.0229 13.5373 15.5038 13.5288 10.2669 13.5203C7.11686 13.5153 4.48021 13.5211 4.40762 13.5334ZM19.4688 18.0626C19.3766 18.1027 19.2662 18.1908 19.2233 18.2585C19.1805 18.3261 18.511 19.8662 17.7356 21.6808C16.9603 23.4954 16.3065 25.0009 16.2828 25.0263C16.259 25.0517 15.8399 24.2796 15.3515 23.3106C14.5429 21.7068 14.4468 21.5405 14.2786 21.4565C14.114 21.3743 13.9051 21.3642 12.3634 21.3642C10.4564 21.3641 10.3431 21.3802 10.1912 21.674C10.0868 21.876 10.0868 22.0135 10.1912 22.2154C10.3409 22.505 10.4721 22.5254 12.1792 22.5254H13.7254L14.8054 24.6877C15.735 26.5487 15.9085 26.8624 16.0501 26.9387C16.2561 27.0496 16.5403 27.006 16.6925 26.8401C16.752 26.7752 17.4357 25.2374 18.2117 23.4228C18.9878 21.6082 19.647 20.0772 19.6766 20.0206C19.7219 19.9343 19.9659 20.386 21.1878 22.8184C22.5387 25.5073 22.6587 25.7259 22.8299 25.8114C22.9945 25.8937 23.2034 25.9037 24.7451 25.9038C26.1214 25.9039 26.5123 25.8885 26.6551 25.8289C26.8407 25.7513 27 25.5179 27 25.3232C27 25.1286 26.8407 24.8952 26.6551 24.8176C26.5138 24.7585 26.1463 24.7425 24.9296 24.7425H23.3838L21.7328 21.4399C20.1701 18.314 20.0721 18.1331 19.9003 18.0614C19.6828 17.9705 19.6805 17.9705 19.4688 18.0626Z" fill="white"/>
</svg>
