<svg width="33" height="33" viewBox="0 0 33 33" fill="none" xmlns="http://www.w3.org/2000/svg">
<path fill-rule="evenodd" clip-rule="evenodd" d="M16.5 0C7.38733 0 0 7.38723 0 16.5C0 25.6127 7.38733 33 16.5 33C25.6128 33 33 25.6127 33 16.5C33 7.38723 25.6128 0 16.5 0ZM16.5 29.7C9.22154 29.7 3.3 23.7785 3.3 16.5C3.3 9.22154 9.22154 3.3 16.5 3.3C23.7786 3.3 29.7 9.22154 29.7 16.5C29.7 23.7785 23.7786 29.7 16.5 29.7ZM18.5661 9.9C18.5661 11.0963 17.6951 11.9625 16.5168 11.9625C15.2908 11.9625 14.4411 11.0963 14.4411 9.87712C14.4411 8.70532 15.3138 7.8375 16.5168 7.8375C17.6951 7.8375 18.5661 8.70532 18.5661 9.9ZM14.8536 14.85H18.1536V24.75H14.8536V14.85Z" fill="#FF7758"/>
</svg>
