<svg width="30" height="34" viewBox="0 0 30 34" fill="none" xmlns="http://www.w3.org/2000/svg">
<path d="M4.14571 0C3.85551 0 3.60677 0.0414571 3.35803 0.124371C1.7412 0.456029 0.456029 1.7412 0.124371 3.35803C0 3.60677 0 3.85551 0 4.14571V26.9471C0 30.3881 2.77763 33.1657 6.21857 33.1657H29.02V29.02H6.21857C5.05777 29.02 4.14571 28.1079 4.14571 26.9471C4.14571 25.7863 5.05777 24.8743 6.21857 24.8743H29.02V2.07286C29.02 0.912057 28.1079 0 26.9471 0H24.8743V12.4371L20.7286 8.29143L16.5829 12.4371V0H4.14571Z" fill="#FF7758"/>
</svg>
