<svg width="45" height="31" viewBox="0 0 45 31" fill="none" xmlns="http://www.w3.org/2000/svg">
<path d="M44.6997 10.5297L40.2138 1.55432C40.0485 1.22397 39.8198 0.929407 39.5407 0.687454C39.2616 0.445502 38.9376 0.260899 38.5871 0.144188C38.2366 0.0274775 37.8666 -0.0190551 37.4982 0.00724798C37.1297 0.033551 36.7701 0.132175 36.4398 0.297486L32.0681 2.48245L22.8589 0.0461192C22.6226 -0.0153731 22.3745 -0.0153731 22.1382 0.0461192L12.929 2.48245L8.55734 0.297486C8.22701 0.132175 7.86736 0.033551 7.49892 0.00724798C7.13047 -0.0190551 6.76046 0.0274775 6.41 0.144188C6.05954 0.260899 5.7355 0.445502 5.4564 0.687454C5.17729 0.929407 4.94857 1.22397 4.78332 1.55432L0.297378 10.528C0.132066 10.8583 0.0334429 11.2179 0.00713983 11.5864C-0.0191632 11.9548 0.0273693 12.3248 0.14408 12.6753C0.260791 13.0258 0.445393 13.3498 0.687346 13.6289C0.929299 13.908 1.22386 14.1367 1.55421 14.302L6.30031 16.6768L16.0544 23.643C16.1981 23.7453 16.3597 23.8198 16.5308 23.8627L27.7808 26.6752C28.0164 26.7343 28.2633 26.7314 28.4974 26.6667C28.7315 26.602 28.9449 26.4777 29.1167 26.3061L36.148 19.2748L38.7987 16.624L43.4429 14.302C44.1096 13.9682 44.6165 13.3834 44.8522 12.676C45.0879 11.9687 45.033 11.1967 44.6997 10.5297ZM35.0511 16.3955L29.0025 11.551C28.7315 11.334 28.3898 11.2249 28.0432 11.2447C27.6966 11.2645 27.3696 11.4118 27.1251 11.6582C23.9944 14.8117 20.5052 14.4127 18.2798 13.0065L25.8806 5.62366H31.4722L36.2552 15.1879L35.0511 16.3955ZM27.6911 23.7537L17.4747 21.1996L8.82628 15.0227L13.7482 5.17893L22.4986 2.86038L24.2212 3.31565L16.3111 10.9938L16.297 11.0096C15.9992 11.3074 15.7721 11.6682 15.6324 12.0654C15.4928 12.4627 15.4441 12.8863 15.49 13.3048C15.5359 13.7234 15.6752 14.1264 15.8976 14.4839C16.12 14.8415 16.4199 15.1446 16.7751 15.3707C20.3892 17.6787 24.7503 17.3043 28.1851 14.4918L33.0454 18.3959L27.6911 23.7537ZM23.17 29.8709C23.0941 30.1749 22.9188 30.4447 22.672 30.6377C22.4252 30.8307 22.121 30.9357 21.8077 30.9362C21.6922 30.936 21.5771 30.9218 21.465 30.894L14.1331 29.0606C13.9618 29.0183 13.8001 28.9437 13.6568 28.8408L9.02492 25.5326C8.74012 25.309 8.55255 24.9842 8.50127 24.6257C8.44999 24.2673 8.53895 23.9029 8.74963 23.6084C8.96031 23.3139 9.27646 23.112 9.63226 23.0448C9.98806 22.9776 10.3561 23.0502 10.6597 23.2475L15.0736 26.401L22.147 28.1658C22.5087 28.2563 22.8197 28.4868 23.0116 28.8065C23.2034 29.1263 23.2604 29.5092 23.17 29.8709Z" fill="#FF7758"/>
</svg>
