<svg width="21" height="17" viewBox="0 0 21 17" fill="none" xmlns="http://www.w3.org/2000/svg">
<path d="M5.384 16.92C4.44533 16.92 3.67733 16.728 3.08 16.344C2.48267 15.96 1.992 15.4693 1.608 14.872C1.18133 14.1467 0.882667 13.4 0.712 12.632C0.584 11.8213 0.52 11.16 0.52 10.648C0.52 8.55733 1.05333 6.65866 2.12 4.952C3.18667 3.24533 4.85067 1.85866 7.112 0.791996L7.688 1.944C6.36533 2.49866 5.21333 3.37333 4.232 4.568C3.29333 5.76266 2.824 6.97866 2.824 8.216C2.824 8.728 2.888 9.176 3.016 9.56C3.69867 9.00533 4.488 8.728 5.384 8.728C6.49333 8.728 7.45333 9.09066 8.264 9.816C9.07467 10.5413 9.48 11.544 9.48 12.824C9.48 14.0187 9.07467 15 8.264 15.768C7.45333 16.536 6.49333 16.92 5.384 16.92ZM16.264 16.92C15.3253 16.92 14.5573 16.728 13.96 16.344C13.3627 15.96 12.872 15.4693 12.488 14.872C12.0613 14.1467 11.7627 13.4 11.592 12.632C11.464 11.8213 11.4 11.16 11.4 10.648C11.4 8.55733 11.9333 6.65866 13 4.952C14.0667 3.24533 15.7307 1.85866 17.992 0.791996L18.568 1.944C17.2453 2.49866 16.0933 3.37333 15.112 4.568C14.1733 5.76266 13.704 6.97866 13.704 8.216C13.704 8.728 13.768 9.176 13.896 9.56C14.5787 9.00533 15.368 8.728 16.264 8.728C17.3733 8.728 18.3333 9.09066 19.144 9.816C19.9547 10.5413 20.36 11.544 20.36 12.824C20.36 14.0187 19.9547 15 19.144 15.768C18.3333 16.536 17.3733 16.92 16.264 16.92Z" fill="#FFAD7D"/>
</svg>
