<svg width="39" height="39" viewBox="0 0 39 39" fill="none" xmlns="http://www.w3.org/2000/svg">
<path d="M34.905 21.732C34.4877 21.4106 34.0018 21.19 33.4851 21.0874C32.9685 20.9849 32.4351 21.0032 31.9267 21.1409L31.2686 21.2932C34.582 18.2128 36.2578 15.1599 36.2578 12.1876C36.2578 8.3242 33.1515 5.17982 29.3323 5.17982C28.2552 5.17307 27.1913 5.41738 26.225 5.89337C25.2588 6.36936 24.4167 7.06393 23.7656 7.92201C23.1145 7.06393 22.2725 6.36936 21.3062 5.89337C20.34 5.41738 19.2761 5.17307 18.199 5.17982C14.3797 5.17982 11.2734 8.3242 11.2734 12.1876C11.2734 13.9213 11.8264 15.6138 12.9934 17.4222C12.0368 17.5697 11.1527 18.0198 10.4706 18.7064L6.93469 22.2423H2.4375C1.87184 22.2423 1.32935 22.467 0.929374 22.867C0.529394 23.267 0.304688 23.8095 0.304688 24.3751V30.4689C0.304687 31.0345 0.529394 31.577 0.929374 31.977C1.32935 32.377 1.87184 32.6017 2.4375 32.6017H18.2812C18.3562 32.6017 18.4309 32.5925 18.5037 32.5743L28.2537 30.1368C28.2998 30.1246 28.3451 30.1093 28.3893 30.0911L34.3032 27.5744L34.3535 27.5515C34.8764 27.2904 35.3242 26.9004 35.6548 26.4184C35.9853 25.9364 36.1877 25.3781 36.2429 24.7963C36.298 24.2144 36.2042 23.6281 35.9701 23.0925C35.736 22.5569 35.3695 22.0898 34.905 21.735V21.732ZM18.199 7.00795C19.2042 6.99454 20.1906 7.28137 21.032 7.83176C21.8733 8.38214 22.5312 9.17103 22.9216 10.0975C22.9905 10.2651 23.1077 10.4085 23.2582 10.5094C23.4088 10.6103 23.5859 10.6642 23.7671 10.6642C23.9484 10.6642 24.1255 10.6103 24.2761 10.5094C24.4266 10.4085 24.5438 10.2651 24.6127 10.0975C25.0031 9.17103 25.661 8.38214 26.5023 7.83176C27.3437 7.28137 28.3301 6.99454 29.3353 7.00795C32.0958 7.00795 34.4297 9.37994 34.4297 12.1876C34.4297 15.2711 31.9648 18.7384 27.3 22.2042L25.0346 22.7253C25.2606 22.1258 25.3378 21.4806 25.2596 20.8448C25.1814 20.209 24.9501 19.6016 24.5857 19.0748C24.2213 18.548 23.7345 18.1174 23.1671 17.82C22.5997 17.5227 21.9687 17.3673 21.3281 17.3673H15.1841C13.7658 15.4889 13.1016 13.8345 13.1016 12.1876C13.1016 9.37994 15.4355 7.00795 18.199 7.00795ZM2.13281 30.4689V24.3751C2.13281 24.2943 2.16491 24.2168 2.22205 24.1597C2.27919 24.1025 2.35669 24.0704 2.4375 24.0704H6.39844V30.7736H2.4375C2.35669 30.7736 2.27919 30.7415 2.22205 30.6843C2.16491 30.6272 2.13281 30.5497 2.13281 30.4689ZM33.5583 25.8986L27.7388 28.3772L18.1685 30.7736H8.22656V23.5357L11.7625 19.9983C12.0166 19.7429 12.3188 19.5404 12.6517 19.4026C12.9846 19.2648 13.3415 19.1944 13.7018 19.1954H21.3281C21.8938 19.1954 22.4363 19.4202 22.8363 19.8201C23.2362 20.2201 23.4609 20.7626 23.4609 21.3283C23.4609 21.8939 23.2362 22.4364 22.8363 22.8364C22.4363 23.2364 21.8938 23.4611 21.3281 23.4611H17.0625C16.8201 23.4611 16.5876 23.5574 16.4162 23.7288C16.2447 23.9002 16.1484 24.1327 16.1484 24.3751C16.1484 24.6176 16.2447 24.8501 16.4162 25.0215C16.5876 25.1929 16.8201 25.2892 17.0625 25.2892H21.9375C22.0062 25.2893 22.0747 25.2816 22.1416 25.2663L32.3487 22.9187L32.3852 22.9096C32.7694 22.8049 33.1787 22.8458 33.5346 23.0244C33.8904 23.2031 34.1677 23.507 34.3132 23.8776C34.4587 24.2483 34.4621 24.6596 34.3227 25.0327C34.1834 25.4057 33.9111 25.7141 33.5583 25.8986Z" fill="black"/>
</svg>
