<svg width="41" height="57" viewBox="0 0 41 57" fill="none" xmlns="http://www.w3.org/2000/svg">
<path fill-rule="evenodd" clip-rule="evenodd" d="M13.8853 0.188555C11.9058 0.623243 10.2231 1.82131 9.07776 3.61172C7.69263 5.77686 7.50664 8.64663 8.59702 11.0286C9.02689 11.9675 9.9983 13.2206 10.7174 13.7636C11.0522 14.0165 11.3263 14.2614 11.3263 14.3079C11.3263 14.3544 10.9835 14.5006 10.5646 14.6328C9.32084 15.0253 7.46015 16.0156 6.26843 16.9192C3.054 19.3564 0.902662 22.8793 0.180824 26.8877C0.0392113 27.6736 0 29.9254 0 37.2597V46.628L0.293558 47.1825C0.664744 47.8836 1.50263 48.6137 2.16697 48.8147C2.53524 48.9262 5.30192 48.9701 11.965 48.9701H21.2499L21.2889 52.7294L21.3279 56.4886L21.6407 56.7444C21.8127 56.8849 22.0775 57 22.229 57C22.41 57 23.3838 56.1162 25.0626 54.4283L27.6204 51.8564L30.1781 54.4283C31.8569 56.1162 32.8307 57 33.0117 57C33.1632 57 33.4135 56.8945 33.5678 56.7658C33.8449 56.5344 33.8486 56.4604 33.8806 50.52L33.9128 44.5084L34.8109 43.848L35.7089 43.1878L36.576 43.3619C37.186 43.4844 37.5087 43.4947 37.6649 43.3969C38.1999 43.0618 39.3416 41.4162 40.0655 39.9364C41.1384 37.7437 41.1488 37.6584 40.4435 36.8237L39.874 36.1497L39.8855 33.705L39.8969 31.2603L40.4485 30.5993C40.7519 30.2358 41 29.8501 41 29.7421C41 29.389 40.1805 27.5128 39.557 26.4383C39.2213 25.8599 38.6425 25.0481 38.2707 24.6344L37.5945 23.8822L36.657 24.0446L35.7195 24.2071L34.4576 23.3547C33.7636 22.8859 32.8917 22.3919 32.5198 22.2567C31.7218 21.9668 31.6949 21.9377 31.4079 21.0483C31.286 20.6705 31.0842 20.2693 30.9598 20.1566C30.686 19.9089 29.4262 19.6608 28.4426 19.6608H27.7239L26.6337 18.5418C24.9295 16.7927 22.9237 15.4881 20.7318 14.7032C20.2582 14.5335 19.8518 14.3811 19.8286 14.3643C19.8055 14.3476 20.2585 13.8611 20.8354 13.2835C22.8175 11.2989 23.5924 8.82302 23.0496 6.21061C22.3053 2.62952 19.0635 -0.0369519 15.4992 0.000387327C15.062 0.00493763 14.3358 0.0896533 13.8853 0.188555ZM13.9897 1.93908C12.3415 2.38675 10.8655 3.66177 10.0963 5.30216C9.69362 6.16123 9.67044 6.29426 9.67044 7.74968C9.67044 9.20511 9.69362 9.33814 10.0963 10.1972C11.8962 14.0359 16.6309 14.96 19.6897 12.0697C21.0271 10.8059 21.7334 8.64984 21.4183 6.79345C20.8183 3.25921 17.3861 1.01631 13.9897 1.93908ZM13.5537 15.6562C8.69346 16.3765 4.32984 19.9023 2.62572 24.4861C1.72094 26.9196 1.74929 26.5466 1.69325 36.7136C1.63894 46.5492 1.63298 46.4468 2.28779 46.9671C2.60996 47.223 2.87305 47.2302 11.9403 47.2302H21.2617V45.8353V44.4405L20.3714 43.8118L19.4812 43.1829L18.8379 43.3329C18.484 43.4155 18.0556 43.4829 17.8858 43.4829C17.2387 43.4829 15.5036 41.0632 14.6803 39.0125C14.441 38.4166 14.2442 37.8313 14.243 37.7122C14.2418 37.593 14.4879 37.1818 14.7899 36.7985L15.3393 36.1015V33.6979V31.2941L14.7899 30.612C14.4879 30.2367 14.2418 29.8326 14.243 29.7136C14.2472 29.299 15.1201 27.3225 15.7492 26.3029C16.0977 25.7378 16.6681 24.9621 17.0167 24.5792L17.6504 23.8829L18.5952 24.0466L19.5398 24.2103L20.3677 23.5946C20.823 23.256 21.7468 22.7117 22.4208 22.3849C23.0947 22.0581 23.6462 21.7353 23.6462 21.6676C23.6462 21.5999 23.7698 21.2107 23.9208 20.8028C24.1795 20.1043 24.2301 20.0524 24.7906 19.9098L25.3856 19.7585L24.9464 19.297C23.825 18.1189 21.6501 16.8104 19.8045 16.2036C17.9259 15.5858 15.476 15.3713 13.5537 15.6562ZM26.8255 21.3641C25.4395 21.4513 25.4237 21.4608 25.1777 22.3466C24.9876 23.0308 24.8897 23.1808 24.5318 23.3365C22.8641 24.0616 22.0061 24.5254 21.2257 25.1234C19.9573 26.0953 19.9779 26.0881 19.0342 25.8892L18.207 25.7148L17.6719 26.4686C17.3775 26.8832 16.8928 27.7188 16.5947 28.3257L16.0527 29.4292L16.6184 30.1069C17.2375 30.8487 17.2378 30.85 17.065 32.5421C16.994 33.2383 16.994 34.188 17.065 34.8842C17.2378 36.5764 17.2375 36.5776 16.6184 37.3194L16.0527 37.9971L16.5947 39.1006C16.8928 39.7075 17.3788 40.545 17.6748 40.9619L18.2129 41.7198L19.0045 41.5333C19.9044 41.3211 20.0866 41.3622 20.7286 41.922C21.5166 42.6087 22.6912 43.3148 23.6855 43.6993C24.2103 43.9022 24.7166 44.1265 24.8105 44.1977C24.9044 44.2691 25.0768 44.6746 25.1936 45.099C25.3503 45.6685 25.4791 45.8904 25.6852 45.9464C26.1359 46.0686 29.1642 46.0367 29.504 45.9062C29.7276 45.8203 29.8795 45.5799 30.0447 45.0508C30.3078 44.2074 30.365 44.1498 31.2633 43.8245C32.24 43.4707 33.4683 42.7576 34.3959 42.0056C34.8462 41.6403 35.2795 41.3438 35.3586 41.3464C35.4376 41.349 35.845 41.4338 36.2637 41.535L37.0251 41.7188L37.7515 40.6157C38.1512 40.0089 38.6289 39.168 38.8132 38.747L39.1483 37.9815L38.5428 37.2304C37.9694 36.5192 37.943 36.4504 38.0446 35.9328C38.1036 35.6321 38.1519 34.6333 38.1519 33.7132C38.1519 32.7931 38.1036 31.7943 38.0446 31.4936C37.943 30.9758 37.9693 30.9071 38.5448 30.1935L39.1523 29.44L38.7604 28.567C38.5449 28.0869 38.0644 27.2495 37.6927 26.7061L37.0167 25.7183L36.2057 25.8893C35.2774 26.085 35.1433 26.0546 34.5121 25.5043C33.7241 24.8176 32.5495 24.1115 31.5552 23.727C31.0304 23.5241 30.5274 23.3026 30.4376 23.2348C30.3478 23.1669 30.1715 22.7821 30.046 22.3797C29.9205 21.9774 29.7257 21.6005 29.6133 21.5424C29.3732 21.4184 27.6817 21.3101 26.8255 21.3641ZM25.2853 24.7436C21.236 25.816 18.4798 29.4489 18.4798 33.7132C18.4798 37.3155 20.4102 40.4575 23.58 42.0145C24.9476 42.6862 26.0602 42.9432 27.6119 42.9456C29.1614 42.9481 30.2693 42.6854 31.727 41.9702C32.625 41.5295 33.0838 41.1864 33.9924 40.2755C35.8495 38.4139 36.5996 36.7324 36.7247 34.1501C36.781 32.9894 36.7457 32.4248 36.5693 31.6742C36.1069 29.7045 34.9283 27.7991 33.3463 26.4633C32.5451 25.7868 30.8442 24.949 29.7399 24.687C28.5481 24.4042 26.4667 24.4306 25.2853 24.7436ZM26.7593 26.2295C25.0973 26.3924 23.6682 27.1035 22.373 28.4119C20.8632 29.9372 20.183 31.5839 20.183 33.7132C20.183 35.8487 20.8658 37.4981 22.373 39.0036C23.9061 40.5349 25.5154 41.2078 27.6447 41.2078C29.7525 41.2078 31.3396 40.5366 32.857 39.0036C34.3641 37.4811 35.0388 35.8451 35.0388 33.7132C35.0388 31.7478 34.4026 30.0684 33.1204 28.6479C31.4936 26.8457 29.2348 25.9869 26.7593 26.2295ZM26.8235 28.1162C26.603 28.4238 26.1736 29.0828 25.8696 29.5807L25.3167 30.4859L24.3158 30.7529C23.7654 30.8997 23.0644 31.0855 22.758 31.1655C21.453 31.5068 21.4623 32.0571 22.7994 33.6501L23.8072 34.8507L23.7338 36.5124C23.6569 38.2522 23.7175 38.5508 24.2001 38.8118C24.4375 38.9401 24.7349 38.8616 26.0483 38.3232L27.6135 37.6816L29.1357 38.3071C29.9729 38.6512 30.7223 38.9326 30.8011 38.9326C30.8798 38.9326 31.0901 38.7853 31.2684 38.6051C31.5779 38.2924 31.5895 38.2214 31.522 37.0326C31.4832 36.3478 31.4287 35.5974 31.4008 35.3649C31.357 34.9993 31.491 34.7742 32.3972 33.692C33.8933 31.9055 33.8196 31.5065 31.9033 31.0178C31.3327 30.8723 30.6517 30.6967 30.3899 30.6277C29.9745 30.5182 29.8079 30.3311 29.0818 29.1591C27.9484 27.3298 27.527 27.1352 26.8235 28.1162ZM26.9881 31.029C26.4555 31.9012 26.3791 31.9688 25.7007 32.1679C25.3041 32.2845 24.7987 32.4163 24.5777 32.461C24.3569 32.5056 24.1761 32.5694 24.1761 32.6029C24.1761 32.6364 24.4742 33.0099 24.8384 33.4331L25.5008 34.2023V35.4443C25.5008 36.3839 25.5411 36.6699 25.6664 36.6197C25.7575 36.5832 26.2291 36.3877 26.7145 36.185L27.5972 35.8166L28.5029 36.185C29.0011 36.3877 29.4865 36.5847 29.5816 36.6227C29.7172 36.6769 29.7477 36.4316 29.7236 35.4795L29.6929 34.2672L30.2131 33.6425C31.1715 32.4917 31.1656 32.5739 30.3048 32.3818C28.9843 32.0872 28.7723 31.9464 28.2081 30.9893C27.9213 30.5025 27.6568 30.1038 27.6204 30.1032C27.5839 30.1025 27.2994 30.5191 26.9881 31.029ZM22.9838 49.6392C22.9838 51.9947 23.0262 53.9219 23.078 53.9219C23.1298 53.9219 24.1027 52.9884 25.24 51.8475C26.7352 50.3475 27.3944 49.773 27.6204 49.773C27.8464 49.773 28.5055 50.3475 30.0007 51.8475C31.138 52.9884 32.1109 53.9219 32.1627 53.9219C32.2145 53.9219 32.2569 51.9947 32.2569 49.6392C32.2569 46.0908 32.2256 45.3566 32.0743 45.3566C31.8153 45.3566 31.6614 45.5927 31.4079 46.378C31.286 46.7558 31.0836 47.1588 30.9581 47.2733C30.2474 47.9232 24.9933 47.9232 24.2826 47.2733C24.1571 47.1588 23.9547 46.7558 23.8329 46.378C23.5793 45.5927 23.4254 45.3566 23.1664 45.3566C23.0151 45.3566 22.9838 46.0908 22.9838 49.6392Z" fill="black"/>
</svg>
